<svg id="svg" version="1.1" xmlns="http://www.w3.org/2000/svg" xmlns:xlink="http://www.w3.org/1999/xlink" width="400" height="400" viewBox="0, 0, 400,400"><g id="svgg"><path id="path0" d="M192.800 108.551 C 192.800 118.445,192.682 121.591,192.300 121.878 C 191.701 122.329,185.626 123.473,182.020 123.814 C 180.600 123.948,179.116 124.231,178.721 124.442 C 178.326 124.654,176.984 125.015,175.739 125.245 C 174.493 125.475,173.098 125.902,172.637 126.193 C 172.177 126.483,171.227 126.841,170.528 126.986 C 169.828 127.132,169.041 127.510,168.779 127.826 C 168.517 128.142,168.043 128.400,167.726 128.400 C 166.990 128.400,162.759 130.391,162.098 131.048 C 161.821 131.323,161.253 131.656,160.835 131.789 C 160.416 131.922,159.973 132.294,159.850 132.615 C 159.726 132.937,159.383 133.200,159.087 133.200 C 158.517 133.200,152.541 139.131,151.822 140.410 C 151.590 140.824,150.455 142.789,149.300 144.778 C 148.145 146.767,147.200 148.854,147.200 149.417 C 147.200 149.979,146.904 151.013,146.541 151.713 C 145.040 154.617,145.057 171.733,146.564 174.600 C 146.911 175.260,147.208 176.160,147.224 176.600 C 147.240 177.040,147.783 178.300,148.430 179.400 C 149.077 180.500,149.860 181.940,150.170 182.600 C 150.833 184.013,156.685 190.177,157.700 190.531 C 158.085 190.665,158.400 190.961,158.400 191.187 C 158.400 191.414,158.656 191.600,158.969 191.600 C 159.282 191.600,160.073 192.050,160.727 192.600 C 161.381 193.150,162.131 193.600,162.395 193.600 C 162.658 193.600,163.331 193.960,163.891 194.400 C 164.450 194.840,165.222 195.200,165.605 195.200 C 165.988 195.200,166.526 195.470,166.800 195.800 C 167.074 196.130,167.566 196.400,167.895 196.400 C 168.223 196.400,169.146 196.744,169.946 197.164 C 171.743 198.109,174.701 199.112,177.600 199.760 C 178.810 200.030,180.250 200.439,180.800 200.669 C 181.350 200.898,182.773 201.212,183.963 201.365 C 185.152 201.519,186.628 201.904,187.243 202.222 C 187.857 202.540,188.965 202.800,189.704 202.800 C 192.806 202.800,192.587 200.882,192.709 229.119 C 192.778 245.161,192.673 254.683,192.419 255.351 C 191.970 256.531,189.643 256.759,186.000 255.980 C 185.010 255.768,182.499 255.417,180.421 255.200 C 178.342 254.983,175.912 254.553,175.021 254.244 C 174.129 253.935,172.320 253.504,171.000 253.285 C 168.437 252.861,165.667 251.962,163.938 250.995 C 163.354 250.668,162.634 250.394,162.338 250.386 C 162.042 250.379,161.080 250.025,160.200 249.600 C 159.320 249.175,158.399 248.821,158.153 248.814 C 157.608 248.797,150.802 245.399,150.091 244.789 C 149.812 244.549,149.047 244.165,148.391 243.937 C 147.736 243.709,147.200 243.359,147.200 243.161 C 147.200 242.962,146.750 242.800,146.200 242.800 L 145.200 242.800 145.209 251.500 C 145.219 261.495,145.330 261.879,148.317 262.280 C 149.236 262.403,150.193 262.750,150.443 263.052 C 150.693 263.353,151.288 263.600,151.764 263.600 C 152.241 263.600,153.297 263.940,154.111 264.355 C 154.925 264.770,156.262 265.235,157.082 265.389 C 157.902 265.543,159.065 265.923,159.666 266.234 C 160.268 266.545,161.264 266.808,161.880 266.818 C 162.496 266.827,163.720 267.111,164.600 267.449 C 165.480 267.786,167.587 268.302,169.281 268.596 C 170.976 268.889,172.572 269.259,172.829 269.418 C 173.085 269.576,175.748 269.943,178.747 270.234 C 190.875 271.409,191.769 271.543,192.295 272.262 C 192.682 272.792,192.800 276.798,192.800 289.476 L 192.800 306.000 197.500 305.994 C 200.085 305.991,202.423 305.846,202.696 305.673 C 203.074 305.433,203.216 301.392,203.296 288.579 L 203.400 271.800 204.800 271.119 C 205.746 270.659,207.756 270.352,211.000 270.173 C 214.000 270.007,216.136 269.697,216.697 269.347 C 217.190 269.038,218.450 268.677,219.497 268.545 C 220.544 268.413,221.792 268.060,222.272 267.761 C 222.751 267.463,223.921 267.100,224.872 266.955 C 225.822 266.811,227.050 266.462,227.600 266.181 C 231.229 264.327,232.861 263.600,233.393 263.600 C 233.727 263.600,234.000 263.430,234.000 263.222 C 234.000 263.014,234.425 262.609,234.944 262.322 C 238.462 260.378,246.400 253.170,246.400 251.920 C 246.400 251.657,246.809 250.803,247.310 250.022 C 248.872 247.581,249.193 247.030,249.648 246.000 C 249.891 245.450,250.340 244.522,250.645 243.938 C 250.950 243.354,251.204 242.364,251.209 241.738 C 251.214 241.112,251.586 239.790,252.037 238.800 C 253.292 236.045,253.295 221.843,252.041 219.091 C 251.579 218.075,251.200 216.824,251.200 216.311 C 251.200 215.798,250.957 215.023,250.660 214.589 C 250.363 214.155,249.991 213.274,249.835 212.632 C 249.678 211.989,249.202 211.020,248.775 210.478 C 248.349 209.936,248.000 209.336,248.000 209.146 C 248.000 208.229,238.627 198.800,237.715 198.800 C 237.486 198.800,237.058 198.511,236.765 198.158 C 236.473 197.805,235.865 197.346,235.416 197.138 C 234.967 196.929,233.880 196.322,233.000 195.787 C 231.190 194.689,230.989 194.583,229.600 194.013 C 229.050 193.787,228.330 193.435,228.000 193.230 C 227.163 192.712,223.836 191.648,221.101 191.024 C 219.837 190.736,218.572 190.309,218.291 190.076 C 218.010 189.842,216.795 189.521,215.590 189.362 C 214.386 189.203,212.860 188.851,212.200 188.580 C 211.540 188.310,209.696 187.960,208.103 187.804 C 206.157 187.613,204.875 187.259,204.200 186.728 L 203.194 185.937 203.297 161.869 L 203.400 137.800 205.480 137.680 C 206.625 137.614,208.912 137.839,210.564 138.180 C 212.215 138.521,214.360 138.800,215.331 138.800 C 216.302 138.800,218.223 139.160,219.600 139.600 C 220.977 140.040,222.666 140.401,223.352 140.402 C 224.038 140.404,225.103 140.667,225.717 140.988 C 226.331 141.308,227.501 141.687,228.317 141.830 C 229.133 141.973,230.163 142.316,230.606 142.592 C 231.049 142.869,232.039 143.229,232.806 143.394 C 233.573 143.558,234.650 143.928,235.200 144.215 C 237.876 145.615,240.161 146.498,241.607 146.692 L 243.200 146.905 243.194 138.353 C 243.187 128.727,243.239 128.933,240.682 128.455 C 239.651 128.262,238.563 127.901,238.264 127.653 C 237.964 127.404,236.837 127.086,235.760 126.944 C 234.682 126.803,233.339 126.456,232.775 126.172 C 232.211 125.889,230.591 125.539,229.175 125.395 C 227.759 125.251,225.790 124.890,224.800 124.594 C 223.810 124.297,221.470 123.930,219.600 123.778 C 217.730 123.626,215.750 123.325,215.200 123.109 C 214.650 122.893,211.936 122.585,209.169 122.425 C 206.402 122.264,203.927 122.002,203.669 121.843 C 203.326 121.631,203.200 118.131,203.200 108.819 C 203.200 97.577,203.126 96.057,202.567 95.843 C 202.219 95.709,199.879 95.600,197.367 95.600 L 192.800 95.600 192.800 108.551 M192.410 138.626 C 192.980 140.126,192.932 183.006,192.359 184.077 C 191.846 185.035,188.901 184.903,186.269 183.803 C 185.475 183.471,184.442 183.200,183.973 183.200 C 183.504 183.200,182.464 182.906,181.660 182.546 C 177.557 180.707,174.946 179.391,174.471 178.922 C 174.181 178.635,173.725 178.400,173.459 178.400 C 172.146 178.400,167.848 173.384,166.448 170.217 C 164.792 166.472,164.621 155.345,166.192 153.608 C 166.527 153.239,166.800 152.570,166.800 152.122 C 166.800 151.674,167.160 150.850,167.600 150.291 C 168.040 149.731,168.400 149.104,168.400 148.897 C 168.400 148.183,175.337 142.000,176.138 142.000 C 176.344 142.000,177.252 141.662,178.156 141.249 C 181.409 139.764,184.237 138.800,185.408 138.777 C 186.063 138.765,187.230 138.516,188.000 138.225 C 190.427 137.307,191.961 137.446,192.410 138.626 M208.542 206.749 C 208.794 206.956,210.060 207.321,211.355 207.560 C 212.650 207.798,213.910 208.154,214.155 208.350 C 214.400 208.547,215.230 208.838,216.000 208.998 C 216.770 209.158,217.670 209.516,218.000 209.794 C 218.330 210.072,219.275 210.516,220.100 210.780 C 220.925 211.045,221.600 211.416,221.600 211.604 C 221.600 211.792,222.005 212.074,222.500 212.231 C 225.145 213.067,231.600 219.867,231.600 221.818 C 231.600 222.162,231.973 223.263,232.429 224.265 C 233.398 226.390,233.472 236.940,232.522 237.525 C 232.260 237.687,231.871 238.593,231.658 239.538 C 231.446 240.484,230.986 241.574,230.636 241.960 C 230.286 242.347,230.000 242.834,230.000 243.043 C 230.000 243.251,229.685 243.720,229.300 244.083 C 228.915 244.446,228.397 244.981,228.150 245.272 C 226.866 246.778,224.303 248.874,222.707 249.722 C 221.717 250.249,220.483 250.977,219.964 251.340 C 219.446 251.703,218.761 252.000,218.442 252.000 C 218.124 252.000,217.565 252.270,217.201 252.599 C 216.837 252.929,215.700 253.355,214.674 253.547 C 213.648 253.738,212.573 254.091,212.285 254.330 C 211.669 254.841,204.610 255.766,203.774 255.445 C 202.976 255.139,202.903 206.600,203.700 206.242 C 204.410 205.923,207.996 206.299,208.542 206.749 " stroke="none" fill="#f9fbf9" fill-rule="evenodd"></path><path id="path1" d="M180.852 40.537 C 180.607 40.832,180.525 41.192,180.670 41.337 C 180.815 41.482,178.681 41.600,175.929 41.600 C 171.432 41.600,170.851 41.681,170.200 42.400 C 169.601 43.062,168.968 43.200,166.538 43.200 C 163.867 43.200,163.600 43.273,163.600 44.000 C 163.600 44.718,163.333 44.800,161.000 44.800 C 157.654 44.800,157.851 44.765,157.480 45.428 C 157.264 45.815,156.454 46.000,154.980 46.000 C 153.781 46.000,152.800 46.180,152.800 46.400 C 152.800 46.620,152.519 46.800,152.176 46.800 C 151.833 46.800,151.664 46.980,151.800 47.200 C 151.949 47.441,151.409 47.600,150.439 47.600 C 149.389 47.600,148.583 47.860,148.116 48.349 C 147.722 48.761,146.770 49.210,146.000 49.347 C 143.722 49.751,143.395 49.883,143.500 50.353 C 143.560 50.623,142.979 50.800,142.027 50.800 C 140.805 50.800,140.397 50.979,140.200 51.600 C 140.022 52.160,139.595 52.400,138.776 52.400 C 138.040 52.400,137.422 52.696,137.107 53.200 C 136.769 53.742,136.174 54.000,135.266 54.000 C 134.262 54.000,133.873 54.201,133.716 54.800 C 133.562 55.389,133.170 55.600,132.230 55.600 C 131.528 55.600,130.604 55.883,130.176 56.230 C 129.749 56.576,129.670 56.730,130.000 56.571 C 130.411 56.373,130.474 56.414,130.200 56.702 C 129.980 56.933,128.990 57.220,128.000 57.341 C 127.010 57.461,126.155 57.568,126.100 57.580 C 126.045 57.591,126.045 57.821,126.100 58.091 C 126.155 58.360,125.795 58.643,125.300 58.718 C 124.725 58.806,124.400 59.134,124.400 59.628 C 124.400 60.262,124.114 60.400,122.800 60.400 C 121.467 60.400,121.200 60.533,121.200 61.200 C 121.200 61.779,120.933 62.000,120.233 62.000 C 118.972 62.000,117.953 62.401,118.200 62.799 C 118.307 62.973,117.946 63.227,117.397 63.365 C 116.849 63.503,116.400 63.882,116.400 64.208 C 116.400 64.533,116.040 64.800,115.600 64.800 C 115.160 64.800,114.800 64.999,114.800 65.243 C 114.800 65.486,114.539 65.586,114.220 65.463 C 113.851 65.321,113.715 65.433,113.844 65.771 C 113.969 66.096,113.652 66.401,113.024 66.558 C 112.461 66.700,112.000 67.082,112.000 67.408 C 112.000 67.733,111.640 68.000,111.200 68.000 C 110.760 68.000,110.400 68.191,110.400 68.424 C 110.400 68.657,110.232 68.744,110.028 68.617 C 109.823 68.491,109.535 68.581,109.389 68.818 C 109.242 69.055,108.690 69.414,108.161 69.615 C 107.633 69.816,107.200 70.255,107.200 70.590 C 107.200 70.933,106.850 71.200,106.400 71.200 C 105.867 71.200,105.600 71.467,105.600 72.000 C 105.600 72.516,105.333 72.800,104.849 72.800 C 104.436 72.800,103.851 73.105,103.549 73.477 C 103.076 74.060,103.083 74.107,103.600 73.813 C 103.931 73.625,104.061 73.625,103.890 73.813 C 103.719 74.000,103.179 74.211,102.690 74.282 C 101.228 74.491,100.734 74.770,101.015 75.224 C 101.162 75.462,100.911 75.750,100.453 75.870 C 99.999 75.989,99.518 76.427,99.386 76.843 C 99.254 77.259,98.798 77.600,98.373 77.600 C 97.867 77.600,97.600 77.876,97.600 78.400 C 97.600 78.933,97.333 79.200,96.800 79.200 C 96.356 79.200,96.000 79.467,96.000 79.800 C 96.000 80.130,95.838 80.400,95.640 80.400 C 95.049 80.400,88.400 87.233,88.400 87.840 C 88.400 88.148,88.040 88.400,87.600 88.400 C 87.067 88.400,86.800 88.667,86.800 89.200 C 86.800 89.733,86.533 90.000,86.000 90.000 C 85.467 90.000,85.200 90.267,85.200 90.800 C 85.200 91.333,84.933 91.600,84.400 91.600 C 83.867 91.600,83.600 91.867,83.600 92.400 C 83.600 92.933,83.333 93.200,82.800 93.200 C 82.267 93.200,82.000 93.467,82.000 94.000 C 82.000 94.440,81.828 94.800,81.618 94.800 C 81.033 94.800,79.200 96.765,79.200 97.391 C 79.200 97.696,78.840 98.060,78.400 98.200 C 77.840 98.378,77.600 98.805,77.600 99.627 C 77.600 100.533,77.418 100.800,76.800 100.800 C 76.283 100.800,76.000 101.067,76.000 101.553 C 76.000 101.970,75.643 102.400,75.200 102.516 C 74.739 102.636,74.400 103.062,74.400 103.518 C 74.400 104.028,74.150 104.291,73.700 104.256 C 73.021 104.202,72.944 104.386,72.846 106.300 C 72.814 106.918,72.549 107.200,72.000 107.200 C 71.467 107.200,71.200 107.467,71.200 108.000 C 71.200 108.440,70.949 108.800,70.643 108.800 C 69.998 108.800,69.600 109.652,69.600 111.033 C 69.600 111.733,69.379 112.000,68.800 112.000 C 68.267 112.000,68.000 112.267,68.000 112.800 C 68.000 113.240,67.750 113.600,67.445 113.600 C 67.133 113.600,66.781 114.177,66.643 114.913 C 66.507 115.635,66.037 116.533,65.598 116.909 C 65.159 117.285,64.800 118.044,64.800 118.596 C 64.800 119.237,64.575 119.600,64.179 119.600 C 63.838 119.600,63.370 120.140,63.140 120.800 C 62.910 121.460,62.598 122.000,62.446 122.000 C 62.294 122.000,62.127 122.565,62.075 123.255 C 61.957 124.803,61.676 125.294,61.111 124.945 C 60.851 124.785,60.791 124.863,60.962 125.138 C 61.119 125.392,61.057 125.600,60.824 125.600 C 60.591 125.600,60.400 126.050,60.400 126.600 C 60.400 127.150,60.040 127.960,59.600 128.400 C 59.105 128.895,58.800 129.733,58.800 130.600 C 58.800 131.733,58.648 132.000,58.000 132.000 C 57.337 132.000,57.200 132.267,57.200 133.553 C 57.200 134.770,57.027 135.152,56.400 135.316 C 55.764 135.482,55.600 135.862,55.600 137.163 C 55.600 138.290,55.428 138.800,55.047 138.800 C 54.422 138.800,54.014 139.997,54.005 141.853 C 54.001 142.768,53.784 143.163,53.200 143.316 C 52.533 143.490,52.400 143.862,52.400 145.548 C 52.400 147.162,52.238 147.658,51.600 148.000 C 50.948 148.349,50.800 148.838,50.800 150.638 C 50.800 151.925,50.642 152.750,50.422 152.613 C 49.929 152.309,49.205 154.944,49.202 157.053 C 49.201 158.323,49.029 158.752,48.462 158.900 C 47.840 159.062,47.711 159.554,47.638 162.041 C 47.577 164.156,47.361 165.201,46.876 165.736 C 46.358 166.307,46.168 167.432,46.062 170.541 C 45.985 172.796,45.718 174.856,45.462 175.177 C 45.092 175.639,45.120 175.693,45.600 175.447 C 45.947 175.270,45.905 175.383,45.500 175.714 C 44.421 176.599,44.421 218.503,45.500 219.737 C 45.999 220.307,46.028 220.438,45.600 220.192 C 45.112 219.911,45.089 219.956,45.474 220.433 C 45.749 220.773,45.982 222.607,46.030 224.810 C 46.110 228.529,46.581 230.582,47.258 230.164 C 47.446 230.048,47.622 231.133,47.650 232.576 C 47.678 234.019,47.745 235.380,47.800 235.600 C 47.855 235.820,47.923 236.180,47.950 236.400 C 47.977 236.620,48.270 236.800,48.600 236.800 C 49.056 236.800,49.201 237.302,49.205 238.900 C 49.212 241.561,49.543 242.800,50.247 242.800 C 50.634 242.800,50.800 243.329,50.800 244.567 C 50.800 246.714,51.104 247.600,51.843 247.600 C 52.229 247.600,52.415 248.152,52.450 249.400 C 52.525 252.100,52.552 252.200,53.200 252.200 C 53.594 252.200,53.845 252.681,53.931 253.600 C 54.003 254.370,54.363 255.346,54.731 255.769 C 55.256 256.371,55.270 256.473,54.800 256.239 C 54.444 256.062,54.484 256.174,54.900 256.514 C 55.333 256.870,55.600 257.643,55.600 258.544 C 55.600 259.733,55.747 260.000,56.400 260.000 C 57.067 260.000,57.200 260.267,57.200 261.600 C 57.200 262.933,57.333 263.200,58.000 263.200 C 58.667 263.200,58.800 263.467,58.800 264.800 C 58.800 265.901,58.974 266.400,59.357 266.400 C 59.987 266.400,60.400 267.247,60.400 268.536 C 60.400 269.016,60.760 269.632,61.200 269.907 C 61.657 270.192,62.000 270.840,62.000 271.416 C 62.000 271.971,62.270 272.529,62.600 272.655 C 62.970 272.797,63.200 273.405,63.200 274.243 C 63.200 275.333,63.357 275.600,64.000 275.600 C 64.579 275.600,64.800 275.867,64.800 276.567 C 64.800 277.914,65.194 278.800,65.792 278.800 C 66.073 278.800,66.411 279.511,66.554 280.400 C 66.719 281.435,67.020 282.000,67.405 282.000 C 67.733 282.000,68.000 282.358,68.000 282.800 C 68.000 283.333,68.267 283.600,68.800 283.600 C 69.563 283.600,69.835 284.369,69.623 285.931 C 69.583 286.223,69.922 286.559,70.375 286.678 C 70.840 286.799,71.200 287.222,71.200 287.647 C 71.200 288.133,71.483 288.400,72.000 288.400 C 72.522 288.400,72.800 288.667,72.800 289.167 C 72.800 290.359,73.231 291.200,73.843 291.200 C 74.149 291.200,74.400 291.560,74.400 292.000 C 74.400 292.533,74.667 292.800,75.200 292.800 C 75.733 292.800,76.000 293.067,76.000 293.600 C 76.000 294.133,76.267 294.400,76.800 294.400 C 77.528 294.400,77.879 295.436,77.647 296.900 C 77.603 297.182,78.225 297.354,78.900 297.247 C 79.065 297.221,79.200 297.650,79.200 298.200 C 79.200 298.785,79.430 299.200,79.753 299.200 C 80.058 299.200,80.401 299.560,80.516 300.000 C 80.631 300.440,81.000 300.800,81.336 300.800 C 81.671 300.800,82.060 301.160,82.200 301.600 C 82.340 302.040,82.712 302.400,83.027 302.400 C 83.342 302.400,83.600 302.760,83.600 303.200 C 83.600 303.717,83.867 304.000,84.353 304.000 C 84.770 304.000,85.200 304.357,85.316 304.800 C 85.431 305.240,85.812 305.600,86.163 305.600 C 86.533 305.600,86.800 305.935,86.800 306.400 C 86.800 306.933,87.067 307.200,87.600 307.200 C 88.044 307.200,88.400 307.467,88.400 307.800 C 88.400 308.133,88.756 308.400,89.200 308.400 C 89.661 308.400,90.000 308.667,90.000 309.029 C 90.000 309.690,94.903 314.800,95.537 314.800 C 95.741 314.800,96.001 315.160,96.116 315.600 C 96.231 316.040,96.600 316.400,96.936 316.400 C 97.271 316.400,97.654 316.741,97.786 317.157 C 97.918 317.573,98.399 318.011,98.853 318.130 C 99.308 318.249,99.562 318.538,99.417 318.773 C 99.272 319.008,99.334 319.200,99.556 319.200 C 99.777 319.200,100.444 319.650,101.038 320.200 C 101.631 320.750,102.461 321.200,102.882 321.200 C 103.303 321.200,103.546 321.364,103.421 321.565 C 103.297 321.766,103.736 322.170,104.398 322.463 C 105.076 322.763,105.600 323.302,105.600 323.698 C 105.600 324.133,105.904 324.400,106.400 324.400 C 106.840 324.400,107.200 324.578,107.200 324.795 C 107.200 325.012,107.830 325.452,108.600 325.774 C 109.370 326.096,110.000 326.548,110.000 326.780 C 110.000 327.011,110.450 327.200,111.000 327.200 C 111.733 327.200,112.000 327.413,112.000 328.000 C 112.000 328.524,112.267 328.800,112.773 328.800 C 113.198 328.800,113.659 329.156,113.797 329.592 C 113.936 330.027,114.173 330.366,114.324 330.345 C 115.482 330.180,116.384 330.518,116.600 331.200 C 116.740 331.640,117.114 332.000,117.431 332.000 C 117.748 332.000,118.316 332.360,118.693 332.800 C 119.070 333.240,119.788 333.600,120.289 333.600 C 120.933 333.600,121.200 333.834,121.200 334.400 C 121.200 335.067,121.467 335.200,122.800 335.200 C 124.133 335.200,124.400 335.333,124.400 336.000 C 124.400 336.454,124.667 336.800,125.016 336.800 C 125.355 336.800,126.120 337.156,126.716 337.592 C 127.312 338.028,128.373 338.425,129.072 338.475 C 129.772 338.525,130.262 338.700,130.161 338.863 C 129.893 339.297,131.384 340.000,132.574 340.000 C 133.184 340.000,133.600 340.226,133.600 340.557 C 133.600 341.202,134.452 341.600,135.833 341.600 C 136.426 341.600,136.800 341.832,136.800 342.200 C 136.800 342.632,137.241 342.800,138.373 342.800 C 139.595 342.800,140.003 342.979,140.200 343.600 C 140.398 344.224,140.805 344.400,142.051 344.400 C 142.929 344.400,143.565 344.535,143.466 344.700 C 143.294 344.984,144.457 346.313,144.690 346.100 C 145.255 345.586,147.536 346.114,147.716 346.800 C 147.893 347.477,148.262 347.600,150.116 347.600 C 151.970 347.600,152.339 347.723,152.516 348.400 C 152.697 349.091,153.062 349.200,155.186 349.200 C 156.638 349.200,157.551 349.356,157.412 349.580 C 156.926 350.366,158.334 350.800,161.373 350.800 C 163.187 350.800,163.588 350.931,163.797 351.592 C 163.936 352.027,164.173 352.366,164.324 352.345 C 166.206 352.077,170.000 352.486,170.000 352.957 C 170.000 353.829,170.939 354.000,175.744 354.000 C 179.690 354.000,180.302 354.093,180.891 354.781 C 181.949 356.017,222.837 356.033,223.895 354.798 C 224.490 354.103,225.076 354.000,228.439 354.000 C 233.001 354.000,234.800 353.703,234.800 352.950 C 234.800 352.486,238.614 352.079,240.476 352.345 C 240.627 352.366,240.864 352.027,241.003 351.592 C 241.211 350.935,241.612 350.800,243.360 350.800 C 244.519 350.800,245.599 350.667,245.762 350.505 C 245.924 350.343,246.359 350.208,246.728 350.205 C 247.098 350.202,247.355 349.975,247.300 349.700 C 247.229 349.345,247.888 349.200,249.573 349.200 C 251.575 349.200,251.985 349.078,252.194 348.419 C 252.395 347.786,252.872 347.616,254.721 347.519 C 256.122 347.446,257.000 347.220,257.000 346.933 C 257.000 346.218,257.270 346.085,259.000 345.946 C 260.614 345.816,261.669 345.253,261.334 344.700 C 261.235 344.535,261.871 344.400,262.749 344.400 C 263.995 344.400,264.402 344.224,264.600 343.600 C 264.797 342.979,265.205 342.800,266.427 342.800 C 267.559 342.800,268.000 342.632,268.000 342.200 C 268.000 341.832,268.374 341.600,268.967 341.600 C 270.348 341.600,271.200 341.202,271.200 340.557 C 271.200 340.226,271.616 340.000,272.226 340.000 C 273.416 340.000,274.907 339.297,274.639 338.863 C 274.538 338.700,275.028 338.525,275.728 338.475 C 276.427 338.425,277.488 338.028,278.084 337.592 C 278.680 337.156,279.445 336.800,279.784 336.800 C 280.133 336.800,280.400 336.454,280.400 336.000 C 280.400 335.348,280.667 335.200,281.837 335.200 C 282.938 335.200,283.324 335.013,283.484 334.400 C 283.612 333.911,284.030 333.600,284.558 333.600 C 285.033 333.600,285.730 333.240,286.107 332.800 C 286.484 332.360,287.052 332.000,287.369 332.000 C 287.686 332.000,288.060 331.640,288.200 331.200 C 288.416 330.518,289.318 330.180,290.476 330.345 C 290.627 330.366,290.864 330.027,291.003 329.592 C 291.141 329.156,291.602 328.800,292.027 328.800 C 292.533 328.800,292.800 328.524,292.800 328.000 C 292.800 327.413,293.067 327.200,293.800 327.200 C 294.350 327.200,294.800 327.011,294.800 326.780 C 294.800 326.548,295.430 326.096,296.200 325.774 C 296.970 325.452,297.600 325.012,297.600 324.795 C 297.600 324.578,297.960 324.400,298.400 324.400 C 298.933 324.400,299.200 324.133,299.200 323.600 C 299.200 323.139,299.467 322.800,299.829 322.800 C 300.574 322.800,301.669 321.803,301.314 321.448 C 301.178 321.311,301.430 321.200,301.875 321.200 C 302.319 321.200,303.169 320.750,303.762 320.200 C 304.356 319.650,305.023 319.200,305.244 319.200 C 305.466 319.200,305.528 319.008,305.383 318.773 C 305.238 318.538,305.492 318.249,305.947 318.130 C 306.401 318.011,306.882 317.573,307.014 317.157 C 307.146 316.741,307.512 316.400,307.827 316.400 C 308.142 316.400,308.400 316.040,308.400 315.600 C 308.400 315.067,308.667 314.800,309.200 314.800 C 309.733 314.800,310.000 314.533,310.000 314.000 C 310.000 313.467,310.267 313.200,310.800 313.200 C 311.333 313.200,311.600 312.933,311.600 312.400 C 311.600 311.867,311.867 311.600,312.400 311.600 C 312.933 311.600,313.200 311.333,313.200 310.800 C 313.200 310.267,313.467 310.000,314.000 310.000 C 314.533 310.000,314.800 309.733,314.800 309.200 C 314.800 308.667,315.067 308.400,315.600 308.400 C 316.044 308.400,316.400 308.133,316.400 307.800 C 316.400 307.470,316.687 307.200,317.037 307.200 C 317.388 307.200,317.769 306.840,317.884 306.400 C 317.999 305.960,318.359 305.600,318.684 305.600 C 319.009 305.600,319.369 305.240,319.484 304.800 C 319.599 304.360,319.959 304.000,320.284 304.000 C 320.609 304.000,320.969 303.640,321.084 303.200 C 321.199 302.760,321.530 302.400,321.820 302.400 C 322.109 302.400,322.460 302.040,322.600 301.600 C 322.740 301.160,323.117 300.800,323.440 300.800 C 323.762 300.800,324.141 300.485,324.282 300.100 C 324.424 299.715,324.778 299.256,325.070 299.080 C 325.361 298.904,325.600 298.409,325.600 297.980 C 325.600 297.551,325.735 297.221,325.900 297.247 C 326.575 297.354,327.197 297.182,327.153 296.900 C 326.921 295.436,327.272 294.400,328.000 294.400 C 328.533 294.400,328.800 294.133,328.800 293.600 C 328.800 293.067,329.067 292.800,329.600 292.800 C 330.124 292.800,330.400 292.533,330.400 292.027 C 330.400 291.602,330.756 291.141,331.192 291.003 C 331.627 290.864,331.966 290.627,331.945 290.476 C 331.780 289.320,332.114 288.463,332.800 288.284 C 333.287 288.157,333.600 287.738,333.600 287.214 C 333.600 286.740,333.768 286.456,333.972 286.583 C 334.549 286.939,335.049 286.012,335.150 284.400 C 335.182 283.883,335.483 283.600,336.000 283.600 C 336.533 283.600,336.800 283.333,336.800 282.800 C 336.800 282.358,337.067 282.000,337.395 282.000 C 337.778 282.000,338.080 281.442,338.241 280.435 C 338.413 279.359,338.730 278.807,339.257 278.669 C 339.678 278.559,339.996 278.318,339.964 278.134 C 339.709 276.683,340.066 275.600,340.800 275.600 C 341.443 275.600,341.600 275.333,341.600 274.243 C 341.600 273.405,341.830 272.797,342.200 272.655 C 342.530 272.529,342.800 271.971,342.800 271.416 C 342.800 270.840,343.143 270.192,343.600 269.907 C 344.040 269.632,344.400 269.016,344.400 268.536 C 344.400 267.247,344.813 266.400,345.443 266.400 C 345.826 266.400,346.000 265.901,346.000 264.800 C 346.000 263.467,346.133 263.200,346.800 263.200 C 347.467 263.200,347.600 262.933,347.600 261.600 C 347.600 260.267,347.733 260.000,348.400 260.000 C 349.053 260.000,349.200 259.733,349.200 258.544 C 349.200 257.639,349.456 256.901,349.876 256.594 C 350.278 256.300,350.643 255.309,350.776 254.150 C 350.933 252.783,351.179 252.200,351.600 252.200 C 352.248 252.200,352.275 252.100,352.350 249.400 C 352.385 248.152,352.571 247.600,352.957 247.600 C 353.696 247.600,354.000 246.714,354.000 244.567 C 354.000 243.329,354.166 242.800,354.553 242.800 C 355.257 242.800,355.588 241.561,355.595 238.900 C 355.599 237.302,355.744 236.800,356.200 236.800 C 356.530 236.800,356.822 236.620,356.850 236.400 C 356.878 236.180,356.945 235.820,357.000 235.600 C 357.055 235.380,357.123 233.760,357.150 232.000 C 357.190 229.444,357.321 228.800,357.800 228.800 C 358.290 228.800,358.409 228.067,358.450 224.800 C 358.509 220.069,358.500 220.158,358.964 219.733 C 359.178 219.537,359.207 219.647,359.034 220.000 C 358.873 220.330,359.024 220.251,359.370 219.824 C 360.148 218.864,360.350 175.600,359.576 175.600 C 359.343 175.600,359.267 175.416,359.406 175.190 C 359.545 174.965,359.421 174.830,359.130 174.890 C 358.721 174.975,358.574 173.999,358.486 170.616 C 358.406 167.547,358.203 166.045,357.810 165.611 C 357.455 165.218,357.216 163.904,357.162 162.041 C 357.089 159.554,356.960 159.062,356.338 158.900 C 355.771 158.752,355.599 158.323,355.598 157.053 C 355.595 154.944,354.871 152.309,354.378 152.613 C 354.156 152.751,354.000 151.845,354.000 150.424 C 354.000 148.122,353.818 147.776,352.700 147.953 C 352.535 147.979,352.378 147.280,352.350 146.400 C 352.322 145.520,352.255 144.620,352.200 144.400 C 352.145 144.180,352.078 143.820,352.050 143.600 C 352.023 143.380,351.730 143.200,351.400 143.200 C 350.967 143.200,350.800 142.756,350.800 141.600 C 350.800 140.720,350.609 140.000,350.376 140.000 C 350.143 140.000,350.065 139.819,350.202 139.597 C 350.339 139.376,350.169 139.086,349.825 138.954 C 349.390 138.787,349.200 138.182,349.200 136.957 C 349.200 135.467,349.079 135.200,348.400 135.200 C 347.733 135.200,347.600 134.933,347.600 133.600 C 347.600 132.267,347.467 132.000,346.800 132.000 C 346.152 132.000,346.000 131.733,346.000 130.600 C 346.000 129.467,345.848 129.200,345.200 129.200 C 344.519 129.200,344.400 128.933,344.400 127.400 C 344.400 126.400,344.212 125.600,343.976 125.600 C 343.743 125.600,343.681 125.392,343.838 125.138 C 344.016 124.851,343.948 124.785,343.659 124.964 C 343.182 125.259,343.045 125.011,342.622 123.084 C 342.487 122.470,342.202 122.075,341.988 122.207 C 341.775 122.339,341.600 122.091,341.600 121.656 C 341.600 120.442,341.173 119.600,340.557 119.600 C 340.232 119.600,340.000 119.190,340.000 118.616 C 340.000 118.074,339.655 117.309,339.232 116.916 C 338.810 116.522,338.343 115.712,338.193 115.116 C 338.044 114.520,337.669 113.823,337.361 113.567 C 337.052 113.311,336.800 112.854,336.800 112.551 C 336.800 112.248,336.440 112.000,336.000 112.000 C 335.421 112.000,335.200 111.733,335.200 111.033 C 335.200 109.652,334.802 108.800,334.157 108.800 C 333.851 108.800,333.600 108.440,333.600 108.000 C 333.600 107.482,333.333 107.200,332.845 107.200 C 332.298 107.200,332.016 106.813,331.826 105.800 C 331.669 104.962,331.330 104.400,330.982 104.400 C 330.658 104.400,330.400 104.029,330.400 103.563 C 330.400 103.062,330.079 102.641,329.600 102.516 C 329.157 102.400,328.800 101.970,328.800 101.553 C 328.800 101.067,328.517 100.800,328.000 100.800 C 327.382 100.800,327.200 100.533,327.200 99.627 C 327.200 98.818,326.960 98.378,326.425 98.208 C 325.999 98.073,325.590 97.566,325.516 97.081 C 325.442 96.596,325.171 96.241,324.915 96.292 C 324.659 96.342,324.336 96.027,324.197 95.592 C 324.059 95.156,323.688 94.800,323.373 94.800 C 323.058 94.800,322.800 94.440,322.800 94.000 C 322.800 93.467,322.533 93.200,322.000 93.200 C 321.467 93.200,321.200 92.933,321.200 92.400 C 321.200 91.867,320.933 91.600,320.400 91.600 C 319.867 91.600,319.600 91.333,319.600 90.800 C 319.600 90.267,319.333 90.000,318.800 90.000 C 318.267 90.000,318.000 89.733,318.000 89.200 C 318.000 88.667,317.733 88.400,317.200 88.400 C 316.667 88.400,316.400 88.133,316.400 87.600 C 316.400 87.067,316.133 86.800,315.600 86.800 C 315.067 86.800,314.800 86.533,314.800 86.000 C 314.800 85.467,314.533 85.200,314.000 85.200 C 313.467 85.200,313.200 84.933,313.200 84.400 C 313.200 83.867,312.933 83.600,312.400 83.600 C 311.960 83.600,311.600 83.338,311.600 83.018 C 311.600 82.264,309.736 80.400,308.982 80.400 C 308.662 80.400,308.400 80.130,308.400 79.800 C 308.400 79.470,308.130 79.200,307.800 79.200 C 307.467 79.200,307.200 78.844,307.200 78.400 C 307.200 77.876,306.933 77.600,306.427 77.600 C 306.002 77.600,305.546 77.259,305.414 76.843 C 305.282 76.427,304.801 75.989,304.347 75.870 C 303.889 75.750,303.638 75.462,303.785 75.224 C 304.066 74.770,303.572 74.491,302.110 74.282 C 301.621 74.211,301.081 74.000,300.910 73.813 C 300.739 73.625,300.869 73.625,301.200 73.813 C 301.717 74.107,301.724 74.060,301.251 73.477 C 300.949 73.105,300.364 72.800,299.951 72.800 C 299.467 72.800,299.200 72.516,299.200 72.000 C 299.200 71.467,298.933 71.200,298.400 71.200 C 297.950 71.200,297.600 70.933,297.600 70.590 C 297.600 70.255,297.167 69.816,296.639 69.615 C 296.110 69.414,295.558 69.055,295.411 68.818 C 295.265 68.581,294.977 68.491,294.772 68.617 C 294.568 68.744,294.400 68.657,294.400 68.424 C 294.400 68.191,294.040 68.000,293.600 68.000 C 293.160 68.000,292.800 67.742,292.800 67.427 C 292.800 67.112,292.464 66.747,292.053 66.617 C 291.642 66.486,290.984 66.024,290.591 65.590 C 290.198 65.155,289.565 64.800,289.185 64.800 C 288.804 64.800,288.399 64.440,288.284 64.000 C 288.157 63.513,287.738 63.200,287.214 63.200 C 286.740 63.200,286.462 63.023,286.595 62.808 C 286.730 62.589,286.136 62.303,285.254 62.162 C 284.170 61.989,283.607 61.670,283.472 61.154 C 283.325 60.592,282.910 60.400,281.837 60.400 C 280.684 60.400,280.400 60.247,280.400 59.628 C 280.400 59.134,280.075 58.806,279.500 58.718 C 279.005 58.643,278.645 58.360,278.700 58.091 C 278.755 57.821,278.755 57.593,278.700 57.585 C 278.645 57.577,277.908 57.470,277.062 57.347 C 276.217 57.225,275.182 56.782,274.762 56.362 C 274.295 55.895,273.443 55.600,272.563 55.600 C 271.462 55.600,271.076 55.413,270.916 54.800 C 270.763 54.214,270.370 54.000,269.450 54.000 C 268.626 54.000,268.020 53.724,267.693 53.200 C 267.381 52.701,266.760 52.400,266.043 52.400 C 265.224 52.400,264.832 52.166,264.681 51.589 C 264.564 51.142,264.318 50.804,264.134 50.836 C 262.999 51.036,261.215 50.732,261.300 50.353 C 261.405 49.883,261.078 49.751,258.800 49.347 C 258.030 49.210,257.078 48.761,256.684 48.349 C 256.211 47.854,255.410 47.600,254.318 47.600 C 253.410 47.600,252.786 47.481,252.931 47.336 C 253.447 46.820,251.771 46.132,249.800 46.051 C 248.454 45.996,247.631 45.745,247.283 45.284 C 246.998 44.908,246.683 44.645,246.583 44.700 C 245.532 45.275,241.200 44.712,241.200 44.000 C 241.200 43.272,240.933 43.200,238.223 43.200 C 235.589 43.200,235.173 43.096,234.615 42.300 C 234.268 41.805,233.898 41.445,233.792 41.500 C 233.340 41.735,223.891 41.575,224.130 41.337 C 224.275 41.192,224.193 40.832,223.948 40.537 C 223.289 39.743,181.511 39.743,180.852 40.537 M202.926 94.465 C 204.752 95.438,204.774 95.595,204.793 108.200 C 204.804 114.800,204.957 120.427,205.133 120.705 C 205.355 121.055,207.490 121.310,212.104 121.537 C 215.972 121.727,218.982 122.053,219.299 122.316 C 219.599 122.565,221.364 122.886,223.222 123.030 C 225.080 123.174,227.140 123.553,227.800 123.872 C 228.460 124.191,230.260 124.554,231.800 124.679 C 233.340 124.804,234.870 125.130,235.200 125.404 C 235.530 125.678,236.700 126.028,237.800 126.182 C 238.900 126.336,240.160 126.690,240.600 126.968 C 241.040 127.246,241.901 127.597,242.514 127.748 C 244.205 128.165,244.404 129.300,244.360 138.326 C 244.308 149.226,243.978 150.088,240.646 148.029 C 239.909 147.573,238.916 147.200,238.440 147.200 C 237.964 147.200,237.479 146.951,237.363 146.647 C 237.246 146.343,236.454 145.983,235.604 145.847 C 234.753 145.711,233.814 145.357,233.518 145.061 C 233.222 144.765,232.264 144.392,231.390 144.232 C 230.515 144.072,229.440 143.711,229.000 143.431 C 228.560 143.150,227.486 142.788,226.614 142.626 C 225.741 142.464,224.571 142.102,224.014 141.821 C 223.456 141.540,221.709 141.207,220.130 141.081 C 218.552 140.955,216.752 140.592,216.130 140.274 C 215.383 139.893,213.305 139.647,210.000 139.548 L 205.000 139.400 204.897 162.492 L 204.794 185.583 205.897 185.816 C 206.504 185.944,207.359 186.247,207.799 186.489 C 208.238 186.732,210.092 187.066,211.919 187.233 C 213.745 187.399,215.465 187.722,215.740 187.950 C 216.015 188.178,217.041 188.484,218.020 188.630 C 218.999 188.775,220.208 189.149,220.706 189.460 C 221.204 189.772,222.374 190.189,223.306 190.387 C 225.657 190.888,228.882 192.026,229.600 192.607 C 229.930 192.874,230.682 193.207,231.272 193.347 C 231.862 193.487,232.582 193.828,232.872 194.105 C 233.162 194.383,233.850 194.841,234.400 195.124 C 236.985 196.455,237.667 196.909,237.868 197.434 C 237.988 197.745,238.237 198.000,238.423 198.000 C 239.733 198.000,245.957 203.655,247.715 206.443 C 248.185 207.189,248.797 208.160,249.075 208.600 C 249.352 209.040,249.867 210.011,250.219 210.758 C 250.571 211.505,251.116 212.373,251.430 212.687 C 251.743 213.001,252.000 213.785,252.000 214.430 C 252.000 215.075,252.360 216.275,252.800 217.096 C 253.240 217.916,253.600 219.352,253.600 220.286 C 253.600 221.220,253.890 223.422,254.244 225.179 C 254.836 228.117,254.836 228.658,254.243 231.887 C 253.888 233.819,253.599 236.303,253.599 237.406 C 253.600 238.649,253.296 239.979,252.800 240.904 C 252.360 241.725,252.000 242.831,252.000 243.362 C 252.000 244.352,250.210 248.184,249.306 249.129 C 249.028 249.419,248.800 249.887,248.800 250.167 C 248.800 250.448,248.440 251.093,248.000 251.600 C 247.560 252.107,247.200 252.690,247.200 252.896 C 247.200 254.491,236.575 263.656,233.650 264.584 C 233.182 264.733,232.800 265.015,232.800 265.212 C 232.800 265.408,232.040 265.774,231.112 266.024 C 230.183 266.274,229.063 266.731,228.623 267.039 C 228.182 267.348,227.501 267.600,227.110 267.600 C 226.718 267.600,225.725 267.960,224.904 268.400 C 224.084 268.840,222.869 269.206,222.206 269.214 C 221.543 269.221,220.280 269.575,219.400 270.000 C 218.502 270.434,216.922 270.781,215.800 270.791 C 214.700 270.801,212.810 271.075,211.600 271.400 C 210.390 271.725,208.770 271.995,208.000 272.001 C 207.230 272.006,206.195 272.119,205.700 272.252 L 204.800 272.493 204.800 289.024 L 204.800 305.555 203.911 306.177 C 202.776 306.972,192.852 307.092,192.080 306.320 C 191.722 305.962,191.600 301.605,191.600 289.180 L 191.600 272.521 185.500 272.297 C 181.526 272.152,178.842 271.863,177.800 271.469 C 176.920 271.136,174.659 270.782,172.775 270.681 C 170.734 270.572,168.842 270.236,168.095 269.849 C 167.404 269.492,166.246 269.199,165.520 269.199 C 164.794 269.198,163.611 268.838,162.890 268.399 C 162.170 267.959,161.000 267.599,160.290 267.598 C 159.581 267.596,158.481 267.324,157.847 266.994 C 157.213 266.663,155.986 266.279,155.120 266.141 C 154.255 266.002,153.306 265.649,153.013 265.356 C 152.719 265.062,151.745 264.705,150.847 264.561 C 149.950 264.418,149.014 264.057,148.767 263.761 C 148.521 263.464,147.663 263.104,146.860 262.961 C 143.625 262.385,143.599 262.294,143.606 251.430 C 143.612 241.486,143.792 240.239,145.101 241.049 C 145.500 241.296,146.418 241.628,147.140 241.787 C 147.863 241.946,148.551 242.328,148.670 242.638 C 148.788 242.947,149.202 243.200,149.589 243.200 C 149.976 243.200,150.721 243.535,151.246 243.945 C 151.771 244.355,152.589 244.812,153.064 244.960 C 153.539 245.109,154.146 245.494,154.413 245.815 C 154.680 246.137,155.302 246.400,155.795 246.400 C 156.288 246.400,157.121 246.734,157.646 247.142 C 158.171 247.550,159.257 248.005,160.060 248.153 C 160.863 248.300,161.740 248.686,162.009 249.011 C 162.278 249.335,162.884 249.600,163.355 249.600 C 163.826 249.600,164.884 249.960,165.704 250.400 C 166.525 250.840,167.659 251.200,168.224 251.200 C 168.789 251.200,170.095 251.545,171.126 251.967 C 172.157 252.389,174.047 252.827,175.328 252.941 C 176.608 253.055,177.897 253.349,178.193 253.594 C 178.719 254.030,180.361 254.195,187.900 254.566 L 191.600 254.748 191.600 229.754 L 191.600 204.759 190.213 204.180 C 189.450 203.861,188.145 203.596,187.313 203.591 C 186.481 203.586,185.015 203.226,184.056 202.791 C 183.097 202.356,181.657 201.999,180.856 201.998 C 180.055 201.996,178.860 201.713,178.200 201.367 C 177.540 201.022,176.060 200.565,174.910 200.351 C 173.761 200.138,172.321 199.703,171.710 199.384 C 171.100 199.066,170.307 198.804,169.949 198.802 C 169.591 198.801,169.083 198.542,168.821 198.226 C 168.559 197.910,167.830 197.538,167.200 197.400 C 166.570 197.262,165.856 196.909,165.613 196.616 C 165.370 196.323,164.548 195.967,163.786 195.824 C 163.024 195.681,162.400 195.386,162.400 195.169 C 162.400 194.952,162.085 194.663,161.700 194.526 C 160.546 194.117,157.200 191.891,157.200 191.533 C 157.200 191.350,156.953 191.200,156.652 191.200 C 155.986 191.200,150.361 185.526,149.800 184.289 C 149.580 183.804,149.085 183.090,148.700 182.703 C 148.315 182.316,148.000 181.680,148.000 181.289 C 148.000 180.898,147.640 180.270,147.200 179.893 C 146.760 179.516,146.400 178.796,146.400 178.293 C 146.400 177.790,146.149 177.019,145.842 176.581 C 145.534 176.142,145.094 174.707,144.864 173.392 C 144.633 172.076,144.263 170.190,144.040 169.200 C 143.817 168.210,143.635 165.510,143.635 163.200 C 143.635 160.890,143.817 158.190,144.040 157.200 C 144.263 156.210,144.634 154.320,144.865 153.000 C 145.095 151.680,145.511 150.150,145.789 149.600 C 146.066 149.050,146.414 147.930,146.563 147.111 C 146.711 146.292,147.054 145.482,147.325 145.311 C 147.595 145.140,148.045 144.550,148.324 144.000 C 149.934 140.828,150.496 140.038,153.908 136.157 C 155.507 134.337,157.217 132.722,157.708 132.567 C 158.199 132.412,158.835 131.951,159.123 131.543 C 159.410 131.134,159.815 130.800,160.023 130.800 C 160.230 130.800,160.760 130.440,161.200 130.000 C 161.640 129.560,162.341 129.200,162.757 129.200 C 163.174 129.200,163.609 128.953,163.725 128.651 C 163.841 128.348,164.562 127.984,165.328 127.840 C 166.093 127.696,166.924 127.332,167.174 127.031 C 167.424 126.730,168.234 126.370,168.974 126.231 C 169.714 126.092,170.540 125.714,170.809 125.389 C 171.078 125.065,171.931 124.800,172.705 124.800 C 173.479 124.800,174.852 124.460,175.756 124.045 C 176.660 123.629,178.300 123.105,179.400 122.880 C 180.500 122.655,182.120 122.279,183.000 122.045 C 183.880 121.811,186.175 121.615,188.100 121.610 L 191.600 121.600 191.606 108.700 C 191.609 101.605,191.760 95.567,191.940 95.283 C 192.703 94.081,201.039 93.460,202.926 94.465 M187.561 139.559 C 186.330 139.691,185.070 140.009,184.761 140.264 C 184.453 140.520,183.480 140.853,182.600 141.004 C 181.091 141.265,178.127 142.403,176.800 143.231 C 176.470 143.437,175.750 143.830,175.200 144.103 C 173.811 144.793,169.200 149.405,169.200 150.103 C 169.200 150.418,168.840 151.002,168.400 151.400 C 167.960 151.798,167.600 152.555,167.600 153.082 C 167.600 153.609,167.300 154.616,166.933 155.320 C 165.919 157.269,165.715 164.064,166.602 166.400 C 166.977 167.390,167.374 168.774,167.483 169.475 C 167.592 170.176,168.023 171.059,168.441 171.437 C 168.858 171.815,169.200 172.326,169.200 172.574 C 169.200 173.246,173.504 177.167,175.052 177.905 C 175.793 178.259,176.400 178.695,176.400 178.874 C 176.400 179.053,176.826 179.200,177.346 179.200 C 177.866 179.200,178.721 179.532,179.246 179.938 C 179.771 180.344,180.813 180.795,181.562 180.940 C 182.311 181.086,183.193 181.429,183.521 181.702 C 183.850 181.976,185.397 182.404,186.959 182.654 C 188.522 182.904,190.205 183.240,190.700 183.401 L 191.600 183.693 191.600 161.447 L 191.600 139.200 190.700 139.259 C 190.205 139.291,188.793 139.426,187.561 139.559 M205.000 208.058 C 204.886 208.356,204.839 218.860,204.896 231.400 L 205.000 254.200 207.253 254.100 C 208.493 254.046,210.023 253.732,210.653 253.403 C 211.284 253.074,212.206 252.804,212.701 252.802 C 213.197 252.801,214.275 252.440,215.096 252.000 C 215.916 251.560,216.884 251.200,217.245 251.200 C 217.606 251.200,218.117 250.942,218.379 250.626 C 218.641 250.310,219.338 249.935,219.928 249.793 C 220.517 249.650,221.810 248.914,222.800 248.157 C 223.790 247.400,224.909 246.676,225.287 246.547 C 225.664 246.419,226.082 245.973,226.214 245.557 C 226.346 245.141,226.712 244.800,227.027 244.800 C 227.342 244.800,227.600 244.552,227.600 244.249 C 227.600 243.946,227.880 243.465,228.223 243.181 C 228.566 242.896,229.102 242.109,229.415 241.432 C 229.728 240.754,230.148 239.930,230.348 239.600 C 231.985 236.907,232.684 229.588,231.600 226.504 C 231.160 225.252,230.800 223.749,230.800 223.163 C 230.800 222.577,230.537 221.880,230.215 221.613 C 229.894 221.346,229.510 220.739,229.362 220.264 C 229.064 219.310,224.271 214.400,223.638 214.400 C 223.419 214.400,223.096 214.164,222.920 213.877 C 222.744 213.589,222.015 213.117,221.300 212.828 C 220.585 212.539,220.000 212.165,220.000 211.996 C 220.000 211.827,219.388 211.574,218.640 211.434 C 217.892 211.294,217.076 210.933,216.827 210.633 C 216.578 210.333,215.525 209.961,214.487 209.808 C 213.449 209.654,212.330 209.299,212.000 209.018 C 211.670 208.737,210.305 208.399,208.967 208.267 C 207.629 208.134,206.235 207.912,205.870 207.772 C 205.483 207.623,205.121 207.742,205.000 208.058 " stroke="none" fill="#04b30c" fill-rule="evenodd"></path><path id="path2" d="M193.434 94.417 C 191.622 94.959,191.613 95.034,191.606 108.700 L 191.600 121.600 188.100 121.610 C 186.175 121.615,183.880 121.811,183.000 122.045 C 182.120 122.279,180.500 122.654,179.400 122.878 C 177.195 123.328,173.781 124.786,174.913 124.794 C 175.305 124.798,176.255 124.537,177.024 124.216 C 178.630 123.545,186.833 122.061,189.800 121.905 L 191.800 121.800 192.000 108.733 C 192.110 101.546,192.350 95.516,192.532 95.333 C 193.220 94.644,201.955 94.679,203.017 95.374 L 204.000 96.018 204.000 108.329 C 204.000 122.164,203.881 121.637,206.980 121.530 L 209.000 121.460 207.207 121.303 C 204.727 121.085,204.814 121.558,204.793 108.200 C 204.774 95.595,204.752 95.438,202.926 94.465 C 201.917 93.928,195.186 93.894,193.434 94.417 M213.000 121.971 C 214.760 122.132,216.920 122.461,217.800 122.701 C 218.680 122.940,220.570 123.256,222.000 123.401 C 223.430 123.547,225.488 123.921,226.573 124.233 C 227.658 124.545,229.008 124.779,229.573 124.754 C 230.384 124.717,230.431 124.669,229.800 124.526 C 229.360 124.427,228.460 124.110,227.800 123.822 C 227.140 123.534,225.080 123.179,223.222 123.033 C 221.364 122.887,219.584 122.552,219.266 122.289 C 218.905 121.989,217.017 121.784,214.244 121.743 C 209.910 121.678,209.879 121.684,213.000 121.971 M170.809 125.389 C 170.540 125.714,169.714 126.092,168.974 126.231 C 168.234 126.370,167.424 126.730,167.174 127.031 C 166.924 127.332,166.093 127.696,165.328 127.840 C 164.562 127.984,163.841 128.348,163.725 128.651 C 163.609 128.953,163.174 129.200,162.757 129.200 C 162.341 129.200,161.640 129.560,161.200 130.000 C 160.760 130.440,160.230 130.800,160.023 130.800 C 159.815 130.800,159.410 131.134,159.123 131.543 C 158.835 131.951,158.199 132.412,157.708 132.567 C 157.217 132.722,155.507 134.337,153.908 136.157 C 150.496 140.038,149.934 140.828,148.324 144.000 C 148.045 144.550,147.595 145.140,147.325 145.311 C 147.054 145.482,146.711 146.292,146.563 147.111 C 146.414 147.930,146.066 149.050,145.789 149.600 C 145.511 150.150,145.095 151.680,144.865 153.000 C 144.634 154.320,144.263 156.210,144.040 157.200 C 143.817 158.190,143.635 160.890,143.635 163.200 C 143.635 165.510,143.817 168.210,144.040 169.200 C 144.263 170.190,144.633 172.076,144.864 173.392 C 145.094 174.707,145.534 176.142,145.842 176.581 C 146.149 177.019,146.400 177.790,146.400 178.293 C 146.400 178.796,146.760 179.516,147.200 179.893 C 147.640 180.270,148.000 180.898,148.000 181.289 C 148.000 181.680,148.315 182.316,148.700 182.703 C 149.085 183.090,149.580 183.804,149.800 184.289 C 150.361 185.526,155.986 191.200,156.652 191.200 C 156.953 191.200,157.200 191.350,157.200 191.533 C 157.200 191.891,160.546 194.117,161.700 194.526 C 162.085 194.663,162.400 194.952,162.400 195.169 C 162.400 195.386,163.024 195.681,163.786 195.824 C 164.548 195.967,165.370 196.323,165.613 196.616 C 165.856 196.909,166.570 197.262,167.200 197.400 C 167.830 197.538,168.559 197.910,168.821 198.226 C 169.083 198.542,169.591 198.801,169.949 198.802 C 170.307 198.804,171.100 199.066,171.710 199.384 C 172.321 199.703,173.761 200.138,174.910 200.351 C 176.060 200.565,177.540 201.022,178.200 201.367 C 178.860 201.713,180.055 201.996,180.856 201.998 C 181.657 201.999,183.097 202.356,184.056 202.791 C 185.015 203.226,186.481 203.586,187.313 203.591 C 188.145 203.596,189.450 203.861,190.213 204.180 L 191.600 204.759 191.600 229.711 L 191.600 254.662 186.100 254.559 L 180.600 254.456 184.400 254.843 C 186.490 255.055,189.010 255.268,190.000 255.315 L 191.800 255.400 191.903 229.951 C 191.984 209.894,191.899 204.417,191.503 204.100 C 191.226 203.878,190.010 203.516,188.800 203.295 C 186.106 202.804,181.422 201.670,179.800 201.115 C 179.140 200.889,177.610 200.470,176.400 200.184 C 173.616 199.525,171.917 198.940,169.400 197.771 C 168.300 197.260,166.410 196.383,165.200 195.822 C 159.257 193.064,151.369 186.650,149.680 183.200 C 149.410 182.650,148.731 181.390,148.170 180.400 C 144.183 173.361,143.133 157.532,146.174 150.313 C 146.518 149.495,146.800 148.547,146.800 148.207 C 146.800 147.566,148.258 144.924,151.063 140.479 C 152.362 138.421,156.450 133.989,158.000 132.959 C 158.770 132.448,160.127 131.527,161.015 130.915 C 162.979 129.560,165.335 128.410,171.400 125.847 C 173.534 124.945,173.661 124.831,172.549 124.816 C 171.861 124.807,171.078 125.065,170.809 125.389 M232.400 125.226 C 235.120 125.874,239.425 127.147,241.400 127.888 L 243.400 128.638 243.507 138.191 C 243.566 143.446,243.463 147.897,243.278 148.082 C 242.978 148.382,241.784 147.974,237.800 146.213 C 231.932 143.619,224.610 141.230,220.200 140.472 C 218.880 140.245,216.900 139.877,215.800 139.655 C 212.600 139.008,204.920 138.279,204.439 138.576 C 204.128 138.768,204.000 145.678,204.000 162.246 L 204.000 185.645 205.700 186.396 C 206.635 186.809,208.390 187.257,209.600 187.391 C 211.841 187.640,214.701 188.307,219.000 189.584 C 225.747 191.588,228.657 192.566,229.200 193.013 C 229.530 193.284,230.222 193.634,230.738 193.792 C 234.946 195.076,244.586 202.720,247.395 207.000 C 249.578 210.327,251.460 214.108,251.774 215.800 C 251.938 216.680,252.264 217.633,252.499 217.918 C 253.964 219.690,254.040 236.144,252.599 239.460 C 252.298 240.153,251.923 241.405,251.766 242.243 C 251.467 243.835,250.207 246.683,248.598 249.400 C 248.077 250.280,247.415 251.485,247.126 252.078 C 246.629 253.096,241.414 258.706,239.761 260.000 C 237.830 261.511,233.212 264.374,231.400 265.184 C 227.667 266.851,227.003 267.105,224.200 267.939 C 222.660 268.397,220.410 269.077,219.200 269.450 C 217.990 269.824,216.280 270.258,215.400 270.415 L 213.800 270.700 215.800 270.736 C 217.025 270.759,218.420 270.473,219.400 270.000 C 220.280 269.575,221.543 269.221,222.206 269.214 C 222.869 269.206,224.084 268.840,224.904 268.400 C 225.725 267.960,226.718 267.600,227.110 267.600 C 227.501 267.600,228.182 267.348,228.623 267.039 C 229.063 266.731,230.183 266.274,231.112 266.024 C 232.040 265.774,232.800 265.408,232.800 265.212 C 232.800 265.015,233.182 264.733,233.650 264.584 C 236.575 263.656,247.200 254.491,247.200 252.896 C 247.200 252.690,247.560 252.107,248.000 251.600 C 248.440 251.093,248.800 250.448,248.800 250.167 C 248.800 249.887,249.028 249.419,249.306 249.129 C 250.210 248.184,252.000 244.352,252.000 243.362 C 252.000 242.831,252.360 241.725,252.800 240.904 C 253.296 239.979,253.600 238.649,253.599 237.406 C 253.599 236.303,253.888 233.819,254.243 231.887 C 254.836 228.658,254.836 228.117,254.244 225.179 C 253.890 223.422,253.600 221.220,253.600 220.286 C 253.600 219.352,253.240 217.916,252.800 217.096 C 252.360 216.275,252.000 215.075,252.000 214.430 C 252.000 213.785,251.743 213.001,251.430 212.687 C 251.116 212.373,250.571 211.505,250.219 210.758 C 249.867 210.011,249.352 209.040,249.075 208.600 C 248.797 208.160,248.185 207.189,247.715 206.443 C 245.957 203.655,239.733 198.000,238.423 198.000 C 238.237 198.000,237.988 197.745,237.868 197.434 C 237.667 196.909,236.985 196.455,234.400 195.124 C 233.850 194.841,233.162 194.383,232.872 194.105 C 232.582 193.828,231.862 193.487,231.272 193.347 C 230.682 193.207,229.930 192.874,229.600 192.607 C 228.882 192.026,225.657 190.888,223.306 190.387 C 222.374 190.189,221.204 189.772,220.706 189.460 C 220.208 189.149,218.999 188.775,218.020 188.630 C 217.041 188.484,216.015 188.178,215.740 187.950 C 215.465 187.722,213.745 187.399,211.919 187.233 C 210.092 187.066,208.238 186.732,207.799 186.489 C 207.359 186.247,206.504 185.944,205.897 185.816 L 204.794 185.583 204.897 162.492 L 205.000 139.400 210.000 139.548 C 213.305 139.647,215.383 139.893,216.130 140.274 C 216.752 140.592,218.552 140.955,220.130 141.081 C 221.709 141.207,223.456 141.540,224.014 141.821 C 224.571 142.102,225.741 142.464,226.614 142.626 C 227.486 142.788,228.560 143.150,229.000 143.431 C 229.440 143.711,230.515 144.072,231.390 144.232 C 232.264 144.392,233.222 144.765,233.518 145.061 C 233.814 145.357,234.753 145.711,235.604 145.847 C 236.454 145.983,237.246 146.343,237.363 146.647 C 237.479 146.951,237.964 147.200,238.440 147.200 C 238.916 147.200,239.909 147.573,240.646 148.029 C 243.978 150.088,244.308 149.226,244.360 138.326 C 244.404 129.300,244.205 128.165,242.514 127.748 C 241.901 127.597,241.040 127.243,240.600 126.961 C 240.160 126.679,238.858 126.324,237.707 126.173 C 236.556 126.022,235.409 125.652,235.158 125.349 C 234.879 125.014,233.983 124.818,232.851 124.846 L 231.000 124.892 232.400 125.226 M189.800 138.645 C 188.920 138.917,187.660 139.152,187.000 139.169 C 185.697 139.202,181.583 140.476,178.956 141.660 C 178.052 142.067,177.125 142.400,176.897 142.400 C 176.212 142.400,171.075 146.604,170.000 148.045 C 168.334 150.277,167.226 152.167,167.210 152.800 C 167.202 153.130,166.898 153.940,166.534 154.600 C 163.635 159.861,167.096 173.476,172.143 176.669 C 172.778 177.071,173.771 177.704,174.349 178.077 C 176.031 179.159,180.088 181.200,180.564 181.202 C 180.804 181.204,181.538 181.485,182.195 181.828 C 183.427 182.470,187.857 183.576,190.500 183.900 L 192.000 184.084 191.994 161.542 C 191.987 136.843,192.092 137.938,189.800 138.645 M191.600 161.447 L 191.600 183.693 190.700 183.401 C 190.205 183.240,188.522 182.904,186.959 182.654 C 185.397 182.404,183.850 181.976,183.521 181.702 C 183.193 181.429,182.311 181.086,181.562 180.940 C 180.813 180.795,179.771 180.344,179.246 179.938 C 178.721 179.532,177.866 179.200,177.346 179.200 C 176.826 179.200,176.400 179.053,176.400 178.874 C 176.400 178.695,175.793 178.259,175.052 177.905 C 173.504 177.167,169.200 173.246,169.200 172.574 C 169.200 172.326,168.858 171.815,168.441 171.437 C 168.023 171.059,167.592 170.176,167.483 169.475 C 167.374 168.774,166.977 167.390,166.602 166.400 C 165.715 164.064,165.919 157.269,166.933 155.320 C 167.300 154.616,167.600 153.609,167.600 153.082 C 167.600 152.555,167.960 151.798,168.400 151.400 C 168.840 151.002,169.200 150.418,169.200 150.103 C 169.200 149.405,173.811 144.793,175.200 144.103 C 175.750 143.830,176.470 143.437,176.800 143.231 C 178.127 142.403,181.091 141.265,182.600 141.004 C 183.480 140.853,184.453 140.520,184.761 140.264 C 185.248 139.862,187.624 139.460,190.700 139.259 L 191.600 139.200 191.600 161.447 M204.097 230.656 L 204.200 254.600 206.849 254.542 C 210.830 254.454,217.732 251.987,223.200 248.697 C 224.744 247.767,229.600 242.923,229.600 242.312 C 229.600 242.100,229.960 241.469,230.400 240.909 C 230.840 240.350,231.200 239.457,231.200 238.926 C 231.200 238.395,231.468 237.442,231.795 236.809 C 235.917 228.840,228.746 214.354,219.077 211.115 C 218.375 210.879,217.516 210.442,217.169 210.143 C 216.821 209.845,216.252 209.600,215.904 209.600 C 215.556 209.600,214.310 209.260,213.136 208.844 C 211.131 208.134,208.297 207.443,205.297 206.933 L 203.994 206.712 204.097 230.656 M208.967 208.267 C 210.305 208.399,211.670 208.737,212.000 209.018 C 212.330 209.299,213.449 209.654,214.487 209.808 C 215.525 209.961,216.578 210.333,216.827 210.633 C 217.076 210.933,217.892 211.294,218.640 211.434 C 219.388 211.574,220.000 211.827,220.000 211.996 C 220.000 212.165,220.585 212.539,221.300 212.828 C 222.015 213.117,222.744 213.589,222.920 213.877 C 223.096 214.164,223.419 214.400,223.638 214.400 C 224.271 214.400,229.064 219.310,229.362 220.264 C 229.510 220.739,229.894 221.346,230.215 221.613 C 230.537 221.880,230.800 222.577,230.800 223.163 C 230.800 223.749,231.160 225.252,231.600 226.504 C 232.684 229.588,231.985 236.907,230.348 239.600 C 230.148 239.930,229.728 240.754,229.415 241.432 C 229.102 242.109,228.566 242.896,228.223 243.181 C 227.880 243.465,227.600 243.946,227.600 244.249 C 227.600 244.552,227.342 244.800,227.027 244.800 C 226.712 244.800,226.346 245.141,226.214 245.557 C 226.082 245.973,225.664 246.419,225.287 246.547 C 224.909 246.676,223.790 247.400,222.800 248.157 C 221.810 248.914,220.517 249.650,219.928 249.793 C 219.338 249.935,218.641 250.310,218.379 250.626 C 218.117 250.942,217.606 251.200,217.245 251.200 C 216.884 251.200,215.916 251.560,215.096 252.000 C 214.275 252.440,213.197 252.801,212.701 252.802 C 212.206 252.804,211.284 253.074,210.653 253.403 C 210.023 253.732,208.493 254.046,207.253 254.100 L 205.000 254.200 204.896 231.400 C 204.788 207.579,204.797 207.360,205.870 207.772 C 206.235 207.912,207.629 208.134,208.967 208.267 M143.843 241.433 C 143.709 241.781,143.600 246.339,143.600 251.563 C 143.600 262.276,143.632 262.386,146.860 262.961 C 147.663 263.104,148.521 263.464,148.767 263.761 C 149.014 264.057,149.950 264.418,150.847 264.561 C 151.745 264.705,152.719 265.062,153.013 265.356 C 153.306 265.649,154.255 266.002,155.120 266.141 C 155.986 266.279,157.213 266.663,157.847 266.994 C 158.481 267.324,159.581 267.596,160.290 267.598 C 161.000 267.599,162.170 267.959,162.890 268.399 C 163.611 268.838,164.794 269.198,165.520 269.199 C 166.246 269.199,167.404 269.492,168.095 269.849 C 168.889 270.260,170.606 270.541,172.775 270.616 C 174.659 270.681,175.570 270.656,174.800 270.561 C 172.648 270.295,166.079 268.815,163.400 267.993 C 162.080 267.588,159.920 266.957,158.600 266.590 C 155.872 265.831,150.973 264.114,149.845 263.521 C 149.429 263.303,148.221 262.866,147.159 262.551 C 144.041 261.625,144.000 261.482,144.000 251.544 C 144.000 240.437,143.938 240.538,149.012 243.396 C 153.839 246.115,157.423 247.753,165.000 250.707 C 168.671 252.139,178.757 254.567,179.856 254.284 C 180.404 254.143,180.331 254.081,179.580 254.046 C 179.019 254.021,178.370 253.810,178.137 253.577 C 177.904 253.344,176.653 253.060,175.357 252.944 C 174.061 252.829,172.157 252.389,171.126 251.967 C 170.095 251.545,168.789 251.200,168.224 251.200 C 167.659 251.200,166.525 250.840,165.704 250.400 C 164.884 249.960,163.826 249.600,163.355 249.600 C 162.884 249.600,162.278 249.335,162.009 249.011 C 161.740 248.686,160.863 248.300,160.060 248.153 C 159.257 248.005,158.171 247.550,157.646 247.142 C 157.121 246.734,156.288 246.400,155.795 246.400 C 155.302 246.400,154.680 246.137,154.413 245.815 C 154.146 245.494,153.539 245.109,153.064 244.960 C 152.589 244.812,151.771 244.355,151.246 243.945 C 150.721 243.535,149.976 243.200,149.589 243.200 C 149.202 243.200,148.786 242.940,148.664 242.622 C 148.542 242.304,147.801 241.924,147.017 241.777 C 146.233 241.630,145.493 241.350,145.372 241.155 C 145.018 240.582,144.106 240.748,143.843 241.433 M177.988 271.435 C 178.979 271.891,181.126 272.138,185.488 272.297 L 191.600 272.521 191.600 289.180 C 191.600 301.605,191.722 305.962,192.080 306.320 C 192.852 307.092,202.776 306.972,203.911 306.177 L 204.800 305.555 204.800 289.024 L 204.800 272.493 205.700 272.252 C 206.195 272.119,207.230 272.005,208.000 271.998 C 208.770 271.990,210.300 271.734,211.400 271.428 L 213.400 270.872 211.600 270.850 C 209.756 270.828,205.294 271.647,204.463 272.161 C 204.124 272.370,204.000 276.872,204.000 288.944 C 204.000 301.241,203.878 305.562,203.520 305.920 C 202.808 306.632,193.050 306.583,192.453 305.864 C 192.147 305.495,191.977 300.181,191.904 288.764 L 191.800 272.200 186.000 271.733 C 182.810 271.476,179.390 271.160,178.400 271.031 L 176.600 270.795 177.988 271.435 " stroke="none" fill="#5acb62" fill-rule="evenodd"></path><path id="path3" d="M192.667 95.467 C 192.520 95.613,192.400 101.427,192.400 108.387 C 192.400 121.886,192.384 121.999,190.420 122.002 C 188.639 122.004,179.464 123.592,177.800 124.186 C 176.920 124.500,175.486 124.884,174.614 125.039 C 173.123 125.304,171.790 125.805,167.700 127.638 C 163.259 129.628,162.128 130.192,161.200 130.876 C 160.650 131.281,159.767 131.925,159.238 132.307 C 158.708 132.688,156.900 134.350,155.219 136.000 C 152.517 138.652,151.570 139.855,149.706 143.000 C 149.446 143.440,148.751 144.610,148.164 145.600 C 147.576 146.590,146.947 148.030,146.766 148.800 C 146.585 149.570,146.179 151.190,145.863 152.400 C 145.547 153.610,145.067 156.605,144.796 159.056 C 144.310 163.466,144.323 163.724,145.423 172.151 C 145.731 174.508,146.998 177.966,148.578 180.762 C 149.360 182.145,150.002 183.395,150.004 183.538 C 150.013 184.234,156.537 190.420,159.004 192.073 C 161.734 193.901,163.082 194.624,168.400 197.113 C 172.455 199.011,183.351 202.191,189.366 203.232 C 190.448 203.420,191.528 203.768,191.766 204.006 C 192.366 204.606,192.378 254.982,191.778 255.582 C 191.482 255.878,190.168 255.825,187.378 255.404 C 185.190 255.075,182.609 254.804,181.642 254.802 C 178.843 254.799,167.317 252.031,164.716 250.738 C 163.900 250.332,162.875 250.000,162.440 250.000 C 162.004 250.000,161.552 249.846,161.436 249.658 C 161.320 249.470,160.184 248.935,158.912 248.468 C 156.761 247.680,151.156 244.916,147.372 242.779 C 144.408 241.105,144.400 241.130,144.400 251.558 L 144.400 260.742 145.454 261.571 C 146.034 262.027,146.799 262.386,147.154 262.368 C 147.696 262.342,147.704 262.302,147.200 262.120 C 145.369 261.459,145.218 260.655,145.209 251.500 L 145.200 242.800 146.200 242.800 C 146.750 242.800,147.200 242.962,147.200 243.161 C 147.200 243.359,147.736 243.709,148.391 243.937 C 149.047 244.165,149.812 244.549,150.091 244.789 C 150.802 245.399,157.608 248.797,158.153 248.814 C 158.399 248.821,159.320 249.175,160.200 249.600 C 161.080 250.025,162.042 250.379,162.338 250.386 C 162.634 250.394,163.354 250.668,163.938 250.995 C 165.667 251.962,168.437 252.861,171.000 253.285 C 172.320 253.504,174.129 253.935,175.021 254.244 C 175.912 254.553,178.342 254.983,180.421 255.200 C 182.499 255.417,185.010 255.768,186.000 255.980 C 189.643 256.759,191.970 256.531,192.419 255.351 C 192.673 254.683,192.778 245.161,192.709 229.119 C 192.587 200.882,192.806 202.800,189.704 202.800 C 188.965 202.800,187.857 202.540,187.243 202.222 C 186.628 201.904,185.152 201.519,183.963 201.365 C 182.773 201.212,181.350 200.898,180.800 200.669 C 180.250 200.439,178.810 200.030,177.600 199.760 C 174.701 199.112,171.743 198.109,169.946 197.164 C 169.146 196.744,168.223 196.400,167.895 196.400 C 167.566 196.400,167.074 196.130,166.800 195.800 C 166.526 195.470,165.988 195.200,165.605 195.200 C 165.222 195.200,164.450 194.840,163.891 194.400 C 163.331 193.960,162.658 193.600,162.395 193.600 C 162.131 193.600,161.381 193.150,160.727 192.600 C 160.073 192.050,159.282 191.600,158.969 191.600 C 158.656 191.600,158.400 191.414,158.400 191.187 C 158.400 190.961,158.085 190.665,157.700 190.531 C 156.685 190.177,150.833 184.013,150.170 182.600 C 149.860 181.940,149.077 180.500,148.430 179.400 C 147.783 178.300,147.240 177.040,147.224 176.600 C 147.208 176.160,146.911 175.260,146.564 174.600 C 145.057 171.733,145.040 154.617,146.541 151.713 C 146.904 151.013,147.200 149.979,147.200 149.417 C 147.200 148.854,148.145 146.767,149.300 144.778 C 150.455 142.789,151.590 140.824,151.822 140.410 C 152.541 139.131,158.517 133.200,159.087 133.200 C 159.383 133.200,159.726 132.937,159.850 132.615 C 159.973 132.294,160.416 131.922,160.835 131.789 C 161.253 131.656,161.821 131.323,162.098 131.048 C 162.759 130.391,166.990 128.400,167.726 128.400 C 168.043 128.400,168.517 128.142,168.779 127.826 C 169.041 127.510,169.828 127.132,170.528 126.986 C 171.227 126.841,172.177 126.483,172.637 126.193 C 173.098 125.902,174.493 125.475,175.739 125.245 C 176.984 125.015,178.326 124.654,178.721 124.442 C 179.116 124.231,180.600 123.948,182.020 123.814 C 185.626 123.473,191.701 122.329,192.300 121.878 C 192.682 121.591,192.800 118.445,192.800 108.551 L 192.800 95.600 197.367 95.600 C 199.879 95.600,202.219 95.709,202.567 95.843 C 203.126 96.057,203.200 97.577,203.200 108.819 C 203.200 118.131,203.326 121.631,203.669 121.843 C 203.927 122.002,206.402 122.264,209.169 122.425 C 211.936 122.585,214.650 122.893,215.200 123.109 C 215.750 123.325,217.730 123.626,219.600 123.778 C 221.470 123.930,223.810 124.297,224.800 124.594 C 225.790 124.890,227.759 125.251,229.175 125.395 C 230.591 125.539,232.211 125.889,232.775 126.172 C 233.339 126.456,234.682 126.803,235.760 126.944 C 236.837 127.086,237.964 127.404,238.264 127.653 C 238.563 127.901,239.651 128.262,240.682 128.455 C 243.239 128.933,243.187 128.727,243.194 138.353 L 243.200 146.905 241.607 146.692 C 240.161 146.498,237.876 145.615,235.200 144.215 C 234.650 143.928,233.573 143.558,232.806 143.394 C 232.039 143.229,231.049 142.869,230.606 142.592 C 230.163 142.316,229.133 141.973,228.317 141.830 C 227.501 141.687,226.331 141.308,225.717 140.988 C 225.103 140.667,224.038 140.404,223.352 140.402 C 222.666 140.401,220.977 140.040,219.600 139.600 C 218.223 139.160,216.302 138.800,215.331 138.800 C 214.360 138.800,212.215 138.521,210.564 138.180 C 208.912 137.839,206.625 137.614,205.480 137.680 L 203.400 137.800 203.297 161.869 L 203.194 185.937 204.200 186.728 C 204.875 187.259,206.157 187.613,208.103 187.804 C 209.696 187.960,211.540 188.310,212.200 188.580 C 212.860 188.851,214.386 189.203,215.590 189.362 C 216.795 189.521,218.010 189.842,218.291 190.076 C 218.572 190.309,219.837 190.736,221.101 191.024 C 223.836 191.648,227.163 192.712,228.000 193.230 C 228.330 193.435,229.050 193.787,229.600 194.013 C 230.989 194.583,231.190 194.689,233.000 195.787 C 233.880 196.322,234.967 196.929,235.416 197.138 C 235.865 197.346,236.473 197.805,236.765 198.158 C 237.058 198.511,237.486 198.800,237.715 198.800 C 238.635 198.800,248.000 208.221,248.000 209.146 C 248.000 209.336,248.349 209.936,248.775 210.478 C 249.202 211.020,249.678 211.989,249.835 212.632 C 249.991 213.274,250.363 214.155,250.660 214.589 C 250.957 215.023,251.200 215.798,251.200 216.311 C 251.200 216.824,251.579 218.075,252.041 219.091 C 253.295 221.843,253.292 236.045,252.037 238.800 C 251.586 239.790,251.214 241.112,251.209 241.738 C 251.204 242.364,250.950 243.354,250.645 243.938 C 250.340 244.522,249.891 245.450,249.648 246.000 C 249.193 247.030,248.872 247.581,247.310 250.022 C 246.809 250.803,246.400 251.657,246.400 251.920 C 246.400 253.170,238.462 260.378,234.944 262.322 C 234.425 262.609,234.000 263.014,234.000 263.222 C 234.000 263.430,233.727 263.600,233.393 263.600 C 232.861 263.600,231.229 264.327,227.600 266.181 C 227.050 266.462,225.822 266.811,224.872 266.955 C 223.921 267.100,222.751 267.463,222.272 267.761 C 221.792 268.060,220.544 268.413,219.497 268.545 C 218.450 268.677,217.190 269.038,216.697 269.347 C 216.136 269.697,214.000 270.007,211.000 270.173 C 207.756 270.352,205.746 270.659,204.800 271.119 L 203.400 271.800 203.296 288.579 C 203.216 301.392,203.074 305.433,202.696 305.673 C 202.423 305.846,200.085 305.991,197.500 305.994 L 192.800 306.000 192.800 289.476 C 192.800 276.798,192.682 272.792,192.295 272.262 C 191.769 271.543,190.875 271.409,178.747 270.234 C 175.748 269.943,173.085 269.576,172.829 269.418 C 172.572 269.259,170.976 268.889,169.281 268.596 C 167.587 268.302,165.480 267.786,164.600 267.449 C 163.720 267.111,162.496 266.827,161.880 266.818 C 161.264 266.808,160.268 266.545,159.666 266.234 C 159.065 265.923,157.902 265.543,157.082 265.389 C 156.262 265.235,154.925 264.770,154.111 264.355 C 153.297 263.940,152.241 263.600,151.764 263.600 C 151.288 263.600,150.674 263.330,150.400 263.000 C 150.126 262.670,149.436 262.400,148.866 262.400 C 147.930 262.400,147.981 262.477,149.400 263.200 C 150.263 263.640,151.226 264.000,151.541 264.000 C 151.855 264.000,152.852 264.339,153.756 264.754 C 155.571 265.586,160.714 267.215,161.498 267.206 C 161.773 267.203,163.033 267.541,164.298 267.958 C 169.114 269.543,178.415 271.055,186.732 271.605 C 189.445 271.785,191.785 272.052,191.932 272.199 C 192.080 272.346,192.290 280.056,192.400 289.333 L 192.600 306.200 197.641 306.312 C 201.525 306.397,202.787 306.297,203.137 305.876 C 203.456 305.492,203.622 300.394,203.696 288.770 L 203.800 272.211 204.822 271.721 C 205.384 271.452,207.994 271.031,210.622 270.786 C 213.250 270.540,216.570 270.000,218.000 269.584 C 223.729 267.918,227.831 266.644,228.400 266.355 C 228.730 266.187,230.045 265.579,231.321 265.003 C 236.741 262.559,244.971 255.700,246.960 251.970 C 247.244 251.436,247.862 250.370,248.333 249.600 C 249.698 247.367,251.208 243.949,251.599 242.203 C 251.798 241.318,252.268 239.875,252.643 238.997 C 253.775 236.353,253.643 221.378,252.463 218.485 C 251.988 217.322,251.600 216.100,251.600 215.769 C 251.600 212.945,242.409 200.000,240.404 200.000 C 240.213 200.000,239.819 199.774,239.529 199.497 C 238.019 198.060,230.689 193.600,229.837 193.600 C 229.631 193.600,229.179 193.356,228.831 193.057 C 228.484 192.759,227.480 192.325,226.600 192.094 C 225.720 191.862,224.460 191.484,223.800 191.253 C 218.636 189.444,213.013 187.984,209.663 187.582 C 208.048 187.389,206.068 186.909,205.263 186.515 L 203.800 185.800 203.697 162.680 C 203.581 136.872,203.494 137.754,206.139 138.159 C 207.053 138.299,209.960 138.681,212.600 139.007 C 215.240 139.334,218.384 139.871,219.587 140.200 C 220.790 140.530,222.140 140.799,222.587 140.798 C 223.034 140.797,224.300 141.092,225.400 141.454 C 231.692 143.522,233.577 144.184,235.200 144.892 C 236.190 145.324,237.540 145.913,238.200 146.202 C 244.057 148.762,243.639 149.404,243.508 138.051 L 243.400 128.756 240.600 127.848 C 235.990 126.353,231.524 125.200,229.400 124.957 C 228.300 124.831,226.590 124.489,225.600 124.197 C 224.610 123.905,222.472 123.548,220.849 123.404 C 219.226 123.259,217.426 122.960,216.849 122.739 C 216.272 122.517,213.322 122.190,210.292 122.011 C 202.892 121.574,203.600 123.010,203.600 108.431 C 203.600 99.420,203.472 96.032,203.120 95.680 C 202.605 95.165,193.161 94.973,192.667 95.467 M188.000 138.225 C 187.230 138.516,186.063 138.765,185.408 138.777 C 184.237 138.800,181.409 139.764,178.156 141.249 C 177.252 141.662,176.344 142.000,176.138 142.000 C 175.337 142.000,168.400 148.183,168.400 148.897 C 168.400 149.104,168.040 149.731,167.600 150.291 C 167.160 150.850,166.800 151.674,166.800 152.122 C 166.800 152.570,166.527 153.239,166.192 153.608 C 164.621 155.345,164.792 166.472,166.448 170.217 C 167.848 173.384,172.146 178.400,173.459 178.400 C 173.725 178.400,174.181 178.635,174.471 178.922 C 174.946 179.391,177.557 180.707,181.660 182.546 C 182.464 182.906,183.544 183.186,184.060 183.168 C 184.613 183.150,184.753 183.056,184.400 182.941 C 177.413 180.664,170.956 176.606,168.437 172.908 C 165.654 168.824,164.523 157.769,166.523 154.200 C 166.893 153.540,167.196 152.762,167.198 152.471 C 167.206 150.588,173.031 144.156,176.011 142.740 C 180.292 140.705,182.983 139.786,187.000 138.985 C 188.540 138.679,190.202 138.311,190.693 138.169 C 192.316 137.699,192.400 138.865,192.400 161.777 C 192.400 186.678,192.702 184.831,188.791 183.829 C 185.737 183.047,184.563 183.041,186.352 183.818 C 188.848 184.902,191.848 185.031,192.359 184.077 C 192.932 183.006,192.980 140.126,192.410 138.626 C 191.961 137.446,190.427 137.307,188.000 138.225 M203.700 206.242 C 202.903 206.600,202.976 255.139,203.774 255.445 C 204.610 255.766,211.669 254.841,212.285 254.330 C 212.573 254.091,213.648 253.738,214.674 253.547 C 215.700 253.355,216.837 252.929,217.201 252.599 C 217.565 252.270,218.124 252.000,218.442 252.000 C 218.761 252.000,219.446 251.703,219.964 251.340 C 220.483 250.977,221.717 250.249,222.707 249.722 C 224.303 248.874,226.866 246.778,228.150 245.272 C 228.397 244.981,228.915 244.446,229.300 244.083 C 229.685 243.720,230.000 243.251,230.000 243.043 C 230.000 242.834,230.286 242.347,230.636 241.960 C 230.986 241.574,231.446 240.484,231.658 239.538 C 231.871 238.593,232.260 237.687,232.522 237.525 C 233.472 236.940,233.398 226.390,232.429 224.265 C 231.973 223.263,231.600 222.162,231.600 221.818 C 231.600 219.867,225.145 213.067,222.500 212.231 C 222.005 212.074,221.600 211.792,221.600 211.604 C 221.600 211.416,220.925 211.045,220.100 210.780 C 219.275 210.516,218.330 210.072,218.000 209.794 C 217.670 209.516,216.770 209.158,216.000 208.998 C 215.230 208.838,214.400 208.547,214.155 208.350 C 213.910 208.154,212.650 207.798,211.355 207.560 C 210.060 207.321,208.794 206.956,208.542 206.749 C 207.996 206.299,204.410 205.923,203.700 206.242 M210.000 207.779 C 228.746 212.099,237.914 226.657,230.669 240.600 C 230.440 241.040,230.013 241.874,229.720 242.453 C 228.509 244.850,223.720 248.853,219.781 250.759 C 218.692 251.287,217.465 251.886,217.055 252.091 C 213.699 253.767,206.132 255.376,204.500 254.760 L 203.600 254.420 203.600 230.638 L 203.600 206.856 204.500 206.712 C 204.995 206.633,205.940 206.727,206.600 206.920 C 207.260 207.114,208.790 207.501,210.000 207.779 " stroke="none" fill="#84dc8c" fill-rule="evenodd"></path><path id="path4" d="M195.700 95.096 C 196.965 95.175,199.035 95.175,200.300 95.096 C 201.565 95.016,200.530 94.951,198.000 94.951 C 195.470 94.951,194.435 95.016,195.700 95.096 M203.100 95.599 C 203.477 96.022,203.600 99.180,203.600 108.431 C 203.600 119.649,203.660 120.747,204.300 121.232 C 204.896 121.682,204.925 121.678,204.500 121.201 C 204.123 120.778,204.000 117.620,204.000 108.369 C 204.000 97.151,203.940 96.053,203.300 95.568 C 202.704 95.118,202.675 95.122,203.100 95.599 M192.178 108.600 C 192.179 115.640,192.233 118.464,192.299 114.875 C 192.366 111.286,192.366 105.526,192.299 102.075 C 192.233 98.624,192.178 101.560,192.178 108.600 M207.305 121.887 C 207.914 121.979,208.814 121.977,209.305 121.882 C 209.797 121.787,209.300 121.711,208.200 121.714 C 207.100 121.717,206.697 121.795,207.305 121.887 M155.781 134.900 L 154.200 136.600 155.900 135.019 C 156.835 134.149,157.600 133.384,157.600 133.319 C 157.600 133.016,157.252 133.319,155.781 134.900 M204.252 138.316 C 204.144 138.490,204.673 138.561,205.428 138.473 C 206.183 138.385,206.800 138.242,206.800 138.156 C 206.800 137.855,204.445 138.003,204.252 138.316 M203.695 162.277 L 203.600 185.555 204.489 186.177 C 204.978 186.520,205.563 186.794,205.789 186.786 C 206.015 186.778,205.750 186.523,205.200 186.218 L 204.200 185.665 203.995 162.333 L 203.790 139.000 203.695 162.277 M192.187 161.600 C 192.187 173.810,192.238 178.805,192.300 172.700 C 192.362 166.595,192.362 156.605,192.300 150.500 C 192.238 144.395,192.187 149.390,192.187 161.600 M144.893 156.800 C 144.893 157.570,144.975 157.885,145.076 157.500 C 145.176 157.115,145.176 156.485,145.076 156.100 C 144.975 155.715,144.893 156.030,144.893 156.800 M144.093 163.200 C 144.093 163.970,144.175 164.285,144.276 163.900 C 144.376 163.515,144.376 162.885,144.276 162.500 C 144.175 162.115,144.093 162.430,144.093 163.200 M234.400 195.785 C 234.400 195.872,235.249 196.516,236.286 197.216 C 237.323 197.916,237.939 198.208,237.654 197.865 C 237.133 197.237,234.400 195.490,234.400 195.785 M244.783 204.100 C 245.764 205.145,246.619 206.000,246.683 206.000 C 246.984 206.000,246.666 205.641,244.900 203.983 L 243.000 202.200 244.783 204.100 M192.188 229.800 C 192.188 243.440,192.238 249.078,192.300 242.329 C 192.361 235.580,192.361 224.420,192.300 217.529 C 192.238 210.638,192.188 216.160,192.188 229.800 M203.692 230.476 C 203.641 243.608,203.735 254.436,203.900 254.538 C 204.172 254.707,204.168 237.445,203.891 215.200 C 203.832 210.470,203.742 217.344,203.692 230.476 M253.293 224.000 C 253.293 224.770,253.375 225.085,253.476 224.700 C 253.576 224.315,253.576 223.685,253.476 223.300 C 253.375 222.915,253.293 223.230,253.293 224.000 M253.701 228.600 C 253.705 229.480,253.787 229.793,253.883 229.295 C 253.979 228.798,253.975 228.078,253.875 227.695 C 253.775 227.313,253.696 227.720,253.701 228.600 M144.249 242.215 C 144.112 242.573,144.038 246.856,144.086 251.733 L 144.171 260.600 144.386 251.200 C 144.617 241.074,144.619 241.252,144.249 242.215 M181.300 271.476 C 181.685 271.576,182.315 271.576,182.700 271.476 C 183.085 271.375,182.770 271.293,182.000 271.293 C 181.230 271.293,180.915 271.375,181.300 271.476 M186.900 271.887 C 187.505 271.978,188.495 271.978,189.100 271.887 C 189.705 271.795,189.210 271.720,188.000 271.720 C 186.790 271.720,186.295 271.795,186.900 271.887 M204.080 272.080 C 203.722 272.438,203.600 276.747,203.600 289.000 C 203.600 301.586,203.483 305.571,203.100 306.001 C 202.675 306.478,202.704 306.482,203.300 306.032 C 203.947 305.542,204.000 304.246,204.000 288.971 C 204.000 273.649,204.051 272.410,204.700 272.032 C 205.085 271.808,205.211 271.619,204.980 271.612 C 204.749 271.605,204.344 271.816,204.080 272.080 M192.183 289.200 C 192.183 298.330,192.235 302.065,192.300 297.500 C 192.364 292.935,192.364 285.465,192.300 280.900 C 192.235 276.335,192.183 280.070,192.183 289.200 " stroke="none" fill="#7cd484" fill-rule="evenodd"></path></g></svg>